<?xml version="1.0" encoding="utf-8"?>
<!-- Generator: Adobe Illustrator 26.5.0, SVG Export Plug-In . SVG Version: 6.00 Build 0)  -->
<svg version="1.1" id="Layer_1" xmlns="http://www.w3.org/2000/svg" xmlns:xlink="http://www.w3.org/1999/xlink" x="0px" y="0px"
	 viewBox="0 0 500 500" style="enable-background:new 0 0 500 500;" xml:space="preserve">
<style type="text/css">
	.st0{fill:none;stroke:#313133;stroke-width:10;stroke-miterlimit:10;}
	.st1{fill:#3F3F3F;}
	.st2{fill:#FF6D00;}
</style>
<circle class="st0" cx="250" cy="251" r="242"/>
<g>
	<path class="st1" d="M258,121c-1.8,1-3.5,2.2-5,3.6l-8.5,7.9l41,37.2c5.7,5.2,10.1,11.8,12.6,19.2c2.5,7.4,3.2,15.2,1.8,22.9
		L276.3,345c-3.9,22-22.9,38-45.3,38c-2.7,0-5.4-0.3-8-0.7l-7.5-1.3l1.6,9.5c2.2,12.7,13.3,21.7,25.8,21.7
		c1.5,0,140.5-24.4,140.5-24.4c14.3-2.5,23.9-16.2,21.3-30.4l-32.8-186c-1.5-8.7-7.4-16.2-15.6-19.6l-75.3-32.1
		c-1.2-0.5-2.4-0.9-3.6-1.2l-3.3-20.4l-2.2-14c-0.9-5.4-5.9-9.1-11.3-8.1c-5.4,0.9-9.1,5.9-8.1,11.3l2.2,13.6L258,121z"/>
	<path class="st2" d="M171.2,231.7l5.4-30.6c-0.1,0-0.2,0-0.3,0.1c-7.1,0.9-11.6,6.2-13.3,11c-1.9,5.1-1.4,10.3,1.4,13.3
		C166.1,227.4,168.3,229.5,171.2,231.7L171.2,231.7z"/>
	<path class="st2" d="M180.7,253.3l-7.1,40.1c9.6-1.1,16.4-8,18.9-15.2c1.2-3.5,4.3-15.8-9.2-23.4
		C182.5,254.4,181.6,253.9,180.7,253.3z"/>
	<path class="st2" d="M189,123.6c-1.4,0.3-3,0.7-4.3,1.3l-75.8,30.6c-8.4,3.4-14.5,10.9-16,19.8L69.2,308.5
		c-2.5,14.3,7,27.9,21.3,30.4l135.9,24c1.6,0.3,3.1,0.4,4.6,0.4c12.5,0,23.6-9,25.8-21.7l23.6-133.2c1.6-8.9-1.5-17.9-8.2-24
		l-60.1-54.5c-1.2-1.1-2.4-2-3.7-2.8l3.5-20.2l3.4-19.4c0.9-5.4-2.6-10.4-8-11.4c-5.4-0.9-10.4,2.6-11.4,8l-3.4,19.4L189,123.6z
		 M193.4,181.6l-1.4,7.7c8.9,2.6,13.9,7.9,16.3,10.4c0.3,0.3,0.7,0.7,0.9,0.9c2.7,2.4,2.8,6.6,0.4,9.3c-2.4,2.6-6.6,2.8-9.3,0.4
		c-0.5-0.5-1-0.9-1.4-1.5c-1.8-1.8-4.4-4.7-9.1-6.4l-6.6,37.3c2,1.2,4.3,2.6,6.7,3.9c14.7,8.3,20.6,23.7,15.1,39.2
		c-2.7,7.6-8,14.2-14.8,18.6c-5.7,3.7-12.2,5.5-18.9,5.6l-1.6,9.4c-0.6,3.2-3.4,5.5-6.4,5.5c-0.4,0-0.8,0-1.1-0.1
		c-3.5-0.7-6-4-5.3-7.6l1.6-8.9c-8.6-1.9-14.8-4.8-23.3-12.7c-2.6-2.5-2.8-6.6-0.3-9.3c2.5-2.6,6.6-2.8,9.3-0.3
		c6.2,5.8,10.2,8,16.6,9.4l8.1-46.1c-6.3-4.2-10.8-7.9-14.1-11.7c-6.1-6.8-7.6-17-3.9-26.7c4-10.7,13.3-18.1,24.1-19.4
		c1.4-0.2,2.9-0.3,4.2-0.3l1.5-8.5c0.7-3.5,4-6,7.6-5.3C191.7,174.6,194,178,193.4,181.6L193.4,181.6z"/>
</g>
</svg>
