<?xml version="1.0" encoding="utf-8"?>
<!-- Generator: Adobe Illustrator 26.5.0, SVG Export Plug-In . SVG Version: 6.00 Build 0)  -->
<svg version="1.1" id="Layer_1" xmlns="http://www.w3.org/2000/svg" xmlns:xlink="http://www.w3.org/1999/xlink" x="0px" y="0px"
	 viewBox="0 0 500 500" style="enable-background:new 0 0 500 500;" xml:space="preserve">
<style type="text/css">
	.st0{fill:none;stroke:#313133;stroke-width:10;stroke-miterlimit:10;}
	.st1{clip-path:url(#SVGID_00000165231105445010347830000016116472653697250196_);}
	.st2{fill:#FFE2CC;}
	.st3{fill:#313133;}
	.st4{fill:#656565;}
	.st5{fill:#FF6D00;}
</style>
<circle class="st0" cx="250" cy="251" r="242"/>
<g>
	<g>
		<defs>
			<rect id="SVGID_1_" x="55.3" y="63.5" width="351.1" height="351.1"/>
		</defs>
		<clipPath id="SVGID_00000062879140593460912780000018117306662924597906_">
			<use xlink:href="#SVGID_1_"  style="overflow:visible;"/>
		</clipPath>
		<g style="clip-path:url(#SVGID_00000062879140593460912780000018117306662924597906_);">
			<path class="st2" d="M343.8,264.1c0,48.5-39.3,87.8-87.8,87.8s-87.8-39.3-87.8-87.8s39.3-87.8,87.8-87.8S343.8,215.7,343.8,264.1
				L343.8,264.1z"/>
			<path class="st3" d="M256,414.6c-21.6,0-43-4.7-62.7-13.7c-6.3-2.9-9.1-10.4-6.1-16.7c2.9-6.3,10.4-9.1,16.7-6.1
				c44.6,20.4,97,13,134.2-19.1s52.2-82.8,38.5-129.9c-13.7-47.1-53.6-81.9-102.1-89.1c-48.5-7.2-96.8,14.6-123.5,55.7
				c-1.8,2.8-4.7,4.7-8,5.4c-3.3,0.7-6.7,0-9.5-1.8c-2.8-1.8-4.7-4.7-5.4-8c-0.7-3.3,0-6.7,1.8-9.5c28.9-44.4,79.2-70.4,132.1-68.2
				c53,2.1,101,32,126.2,78.6c25.3,46.6,24.2,103.1-3,148.7C358.1,386.7,309,414.6,256,414.6L256,414.6L256,414.6z"/>
		</g>
	</g>
	<path class="st4" d="M268.5,63.5h-25.1c-20.8,0-37.6,16.8-37.6,37.6v25.1c0,6.9,5.6,12.5,12.5,12.5h75.2c6.9,0,12.5-5.6,12.5-12.5
		v-25.1C306.2,80.3,289.3,63.5,268.5,63.5L268.5,63.5z"/>
	<path class="st5" d="M328.5,206.2c-4.3-5.4-12.1-6.3-17.6-2l-35.2,28.1c-5.9-3.8-12.7-5.8-19.7-5.8c-15.2,0-28.9,9.2-34.8,23.2
		c-5.8,14.1-2.6,30.2,8.2,41c10.8,10.8,26.9,14,41,8.2c14.1-5.8,23.2-19.5,23.2-34.8c0-4.3-0.8-8.5-2.3-12.5l35.1-28.1
		C331.7,219.2,332.6,211.6,328.5,206.2L328.5,206.2L328.5,206.2z"/>
	<path class="st5" d="M168.2,226.5H93c-6.9,0-12.5,5.6-12.5,12.5S86,251.6,93,251.6h75.2c6.9,0,12.5-5.6,12.5-12.5
		S175.1,226.5,168.2,226.5L168.2,226.5z"/>
	<path class="st5" d="M168.2,276.7H67.9c-6.9,0-12.5,5.6-12.5,12.5s5.6,12.5,12.5,12.5h100.3c6.9,0,12.5-5.6,12.5-12.5
		S175.1,276.7,168.2,276.7L168.2,276.7z"/>
	<path class="st5" d="M168.2,326.8H93c-6.9,0-12.5,5.6-12.5,12.5S86,351.9,93,351.9h75.2c6.9,0,12.5-5.6,12.5-12.5
		S175.1,326.8,168.2,326.8L168.2,326.8z"/>
</g>
</svg>
