<?xml version="1.0" encoding="utf-8"?>
<!-- Generator: Adobe Illustrator 26.5.0, SVG Export Plug-In . SVG Version: 6.00 Build 0)  -->
<svg version="1.1" id="Layer_1" xmlns="http://www.w3.org/2000/svg" xmlns:xlink="http://www.w3.org/1999/xlink" x="0px" y="0px"
	 viewBox="0 0 500 500" style="enable-background:new 0 0 500 500;" xml:space="preserve">
<style type="text/css">
	.st0{fill:#D6D6D6;}
	.st1{fill:#838384;}
	.st2{fill:#252526;}
	.st3{fill:#5A5A5B;}
	.st4{display:none;fill:#F7F7F7;}
	.st5{fill:#FF6D00;}
	.st6{fill:none;stroke:#313133;stroke-width:10;stroke-miterlimit:10;}
</style>
<g>
	<path class="st0" d="M146.8,204.5c-2.1,0-3.9-1.7-3.9-3.9v-50.4c0-4.3,3.5-7.8,7.8-7.8h15.5c2.1,0,3.9,1.7,3.9,3.9
		c0,2.1-1.7,3.9-3.9,3.9h-15.5v50.4C150.7,202.7,148.9,204.5,146.8,204.5L146.8,204.5z M146.8,204.5"/>
	<path class="st0" d="M232.1,204.5c-2.1,0-3.9-1.7-3.9-3.9v-50.4h-15.5c-2.1,0-3.9-1.7-3.9-3.9c0-2.1,1.7-3.9,3.9-3.9h15.5
		c4.3,0,7.8,3.5,7.8,7.8v50.4C236,202.7,234.3,204.5,232.1,204.5L232.1,204.5z M232.1,204.5"/>
	<path class="st1" d="M364,336.3c0,15-12.2,27.2-27.2,27.2s-27.2-12.2-27.2-27.2s12.2-27.2,27.2-27.2S364,321.4,364,336.3L364,336.3
		z M364,336.3"/>
	<path class="st2" d="M344.6,332.5v-97c0-23.6-19.1-42.7-42.7-42.7c-23.6,0-42.7,19.1-42.7,42.7V317c0,17.1-13.9,31-31,31
		c-17.1,0-31-13.9-31-31v-46.5h-15.5V317c0,25.7,20.8,46.5,46.5,46.5c25.7,0,46.5-20.8,46.5-46.5v-81.5c0-15,12.2-27.1,27.2-27.1
		s27.2,12.2,27.2,27.1v97H344.6z M344.6,332.5"/>
	<path class="st2" d="M189.5,278.2c-27.8,0-50.4-22.6-50.4-50.4v-27.2c0-4.3,3.5-7.8,7.8-7.8c4.3,0,7.8,3.5,7.8,7.8v27.2
		c0,19.3,15.6,34.9,34.9,34.9c19.3,0,34.9-15.6,34.9-34.9v-27.2c0-4.3,3.5-7.8,7.8-7.8s7.8,3.5,7.8,7.8v27.2
		C239.8,255.6,217.3,278.1,189.5,278.2L189.5,278.2z M189.5,278.2"/>
	<path class="st3" d="M166.2,138.5h3.9c4.3,0,7.8,3.5,7.8,7.8c0,4.3-3.5,7.8-7.8,7.8h-3.9c-2.1,0-3.9-1.7-3.9-3.9v-7.8
		C162.3,140.3,164,138.5,166.2,138.5L166.2,138.5z M166.2,138.5"/>
	<path class="st3" d="M212.7,154h-3.9c-4.3,0-7.8-3.5-7.8-7.8c0-4.3,3.5-7.8,7.8-7.8h3.9c2.1,0,3.9,1.7,3.9,3.9v7.8
		C216.6,152.3,214.9,154,212.7,154L212.7,154z M212.7,154"/>
	<path class="st3" d="M348.5,336.3c0,6.4-5.2,11.6-11.6,11.6c-6.4,0-11.6-5.2-11.6-11.6c0-6.4,5.2-11.6,11.6-11.6
		C343.3,324.7,348.5,329.9,348.5,336.3L348.5,336.3z M348.5,336.3"/>
</g>
<g>
	<path class="st4" d="M418.2,251c0,92.9-75.3,168.2-168.2,168.2S81.8,343.9,81.8,251S157.1,82.8,250,82.8S418.2,158.1,418.2,251
		L418.2,251z M418.2,251"/>
	<g>
		<path class="st5" d="M118.9,391.3c77.5,72.4,199,68.3,271.4-9.2c72.4-77.5,68.3-199-9.2-271.4c-77.5-72.4-199-68.3-271.4,9.2
			C37.3,197.4,41.4,318.9,118.9,391.3L118.9,391.3z M370.4,363.5c-59,63.1-155.9,69.5-222.5,16.8L372,140.3
			C429.1,203.2,429.4,300.3,370.4,363.5L370.4,363.5z M352.1,121.7L128,361.6c-57.1-62.8-57.3-160,1.7-223.1
			C188.6,75.4,285.6,69,352.1,121.7L352.1,121.7z M352.1,121.7"/>
	</g>
</g>
<circle class="st6" cx="250" cy="251" r="242"/>
</svg>
